# Blender 5.0.0
# www.blender.org
o Rounded
v 0.000000 0.000000 0.015464
v 0.000000 1.000000 -0.000000
v 0.000000 -0.000000 -0.015464
v 0.000000 0.899811 0.005424
v 0.000000 0.746579 0.009633
v 0.000000 0.551794 0.012377
v 0.000000 0.301381 0.014798
v 0.000000 0.301381 -0.014798
v 0.000000 0.551794 -0.012377
v 0.000000 0.746579 -0.009633
v 0.000000 0.899811 -0.005424
vn 0.3036 -0.0078 0.9528
vn 0.3237 0.0021 -0.9462
vn 0.3235 0.0042 -0.9462
vn 1.0000 -0.0000 -0.0000
vn 0.3126 -0.0184 0.9497
vn 0.3233 -0.0060 -0.9463
vn 0.3231 0.0015 -0.9464
vn 0.3112 -0.0108 0.9503
vn 0.3231 0.0060 -0.9463
vn 0.3063 -0.0060 0.9519
vn 0.3025 -0.0098 0.9531
vt 0.029308 0.222161
vt 0.993330 0.000798
vt 0.972104 0.222161
vt 0.500706 0.999193
vt 0.357396 0.926665
vt 0.644017 0.926665
vt 0.170787 0.738939
vt 0.895950 0.598850
vt 0.830627 0.738938
vt 0.105462 0.598851
vt 0.942452 0.425744
vt 0.058960 0.425745
vt 0.008082 0.000799
s 1
f 7/1/1 3/2/2 8/3/3
f 2/4/4 4/5/5 11/6/6
f 4/7/5 10/8/7 11/9/6
f 5/10/8 9/11/9 10/8/7
f 6/12/10 8/3/3 9/11/9
f 7/1/1 1/13/11 3/2/2
f 4/7/5 5/10/8 10/8/7
f 5/10/8 6/12/10 9/11/9
f 6/12/10 7/1/1 8/3/3
